{"title":"The.Double.PL.2011.BRRip.XviD-RLF","uid":7121092,"size":742617709,"categoryP":"video","categoryS":"movies","magnet":"?xt=urn:btih:2a9c81c4fbc364db459e6e622b766c9bcf438453&amp;dn=The.Double.PL.2011.BRRip.XviD-RLF&amp;tr=udp%3A%2F%2Ftracker.openbittorrent.com%3A80&amp;tr=udp%3A%2F%2Fopen.demonii.com%3A1337&amp;tr=udp%3A%2F%2Ftracker.coppersurfer.tk%3A6969&amp;tr=udp%3A%2F%2Fexodus.desync.com%3A6969","seeders":0,"leechers":0,"uploader":"rlf-rls","files":-1,"time":1332370323,"description":"The.Double.PL.2011.BRRip.XviD-RLF\n~~~~~~~~~~~~~~~~~~~~~~~~~~~~~~~~~\n                                            \nComplete name: rlf-double-pl.avi\nFormat: AVI\nFormat/Info: Audio Video Interleave\nFile size: 698 GiB\nDuration: 1h 38mn\nOverall bit rate: 992 Kbps\nLanguage: Polish\nSubs: English \nEncoder: Ralf\n\nVideo:\n\nFormat: MPEG-4 Visual\nFormat profile: Advanced Simple@L5\nFormat settings, BVOP: 2\nFormat settings, QPel: No\nFormat settings, GMC: No warppoints\nFormat settings, Matrix: H.263\nMuxing mode: Packed bitstream\nCodec ID: XVID\nDuration: 1h 38mn\nBit rate: 853 Kbps\nWidth: 688 pixels\nHeight: 288 pixels\nDisplay aspect ratio: 2.35:1\nFrame rate: 23.976 fps\nColor space: YUV\nChroma subsampling: 4:2:0\nBit depth: 8 bits\nScan type: Progressive\nBits/(Pixel*Frame): 0.180\nStream size: 600 MiB (86%)\nStream size: Xvid 64\n\nAudio:\n\nFormat: MPEG Audio\nCodec ID/Hint: MP3\nDuration: 1h 38mn\nBit rate: 128 Kbps\nChannel(s): 2 channels\nSampling rate: 48.0 KHz\nStream size: 90.0 MiB (13%)\nAlignment: Split accross interleaves\nInterleave, duration: 42 ms (1.00 video frame)\nInterleave, preload duration: 504 ms\n                   \nMOVIE INFO:\n\nW tajemniczych okolicznosciach zostaje zamordowany amerykanski senator. \nAkcje przeprowadzono w sposob perfekcyjny, a pewne poszlaki wskazuja, \nze sprawca jest legendarny sowiecki agent o pseudonimie Cassius. \nProblem polega na tym, ze Cassius dawno temu zginal...  Zabil go Paul \nShepherdson, emerytowany agent CIA, ktory znaczna czesc zycia poswiecil \nna rozpracowanie agenta. Teraz na polecenie swojego zwierzchnika wraca \ndo sluzby, aby znow tropic swojego odwiecznego wroga. \n                                           &lt;a href=&quot;\nhttp://www.imdb.com/title/tt1646980/&quot; rel=&quot;nofollow&quot; target=&quot;_NEW&quot;&gt;\nhttp://www.imdb.com/title/tt1646980/&lt;/a&gt; &lt;a href=&quot;\nhttp://www.filmweb.pl/film/Druga+twarz-2011-568195&quot; rel=&quot;nofollow&quot; target=&quot;_NEW&quot;&gt;\nhttp://www.filmweb.pl/film/Druga+twarz-2011-568195&lt;/a&gt;\n\nSOURCE:\n\nREFiNED's 720p.BluRay.x264 / lib32's AC3 5.1 (THX)\n\nSCREENS:\n &lt;a href=&quot;\nhttp://www.postimg.com/63000/photo-62920.jpg&quot; rel=&quot;nofollow&quot; target=&quot;_NEW&quot;&gt;\nhttp://www.postimg.com/63000/photo-62920.jpg&lt;/a&gt; &lt;a href=&quot;\nhttp://www.postimg.com/63000/photo-62921.jpg&quot; rel=&quot;nofollow&quot; target=&quot;_NEW&quot;&gt;\nhttp://www.postimg.com/63000/photo-62921.jpg&lt;/a&gt; &lt;a href=&quot;\nhttp://www.postimg.com/63000/photo-62922.jpg&quot; rel=&quot;nofollow&quot; target=&quot;_NEW&quot;&gt;\nhttp://www.postimg.com/63000/photo-62922.jpg&lt;/a&gt; &lt;a href=&quot;\nhttp://www.postimg.com/63000/photo-62923.jpg&quot; rel=&quot;nofollow&quot; target=&quot;_NEW&quot;&gt;\nhttp://www.postimg.com/63000/photo-62923.jpg&lt;/a&gt; &lt;a href=&quot;\nhttp://www.postimg.com/63000/photo-62924.jpg&quot; rel=&quot;nofollow&quot; target=&quot;_NEW&quot;&gt;\nhttp://www.postimg.com/63000/photo-62924.jpg&lt;/a&gt;","torrent":{"xt":"urn:btih:2a9c81c4fbc364db459e6e622b766c9bcf438453","amp;dn":"The.Double.PL.2011.BRRip.XviD-RLF","amp;tr":["udp%3A%2F%2Ftracker.openbittorrent.com%3A80","udp%3A%2F%2Fopen.demonii.com%3A1337","udp%3A%2F%2Ftracker.coppersurfer.tk%3A6969","udp%3A%2F%2Fexodus.desync.com%3A6969"],"infoHash":"2a9c81c4fbc364db459e6e622b766c9bcf438453","infoHashBuffer":{"type":"Buffer","data":[42,156,129,196,251,195,100,219,69,158,110,98,43,118,108,155,207,67,132,83]},"announce":[],"urlList":[]}}